<svg viewBox="0 0 24 24" fill="none" xmlns="http://www.w3.org/2000/svg">
<path opacity="0.1" fill-rule="evenodd" clip-rule="evenodd" d="M3 12C3 4.5 4.5 3 12 3C19.4 3 21 4.5 21 12C21 16.3 20.4 18.6 18.5 19.8L18.2 18.8C17.9 17.6 17.2 16.8 16.2 16.3C15.2 15.9 13.8 15.7 12 15.7C10.1 15.7 8.7 15.9 7.7 16.4C6.7 16.9 6.0 17.7 5.7 18.9L5.4 19.8C3.5 18.6 3 16.3 3 12ZM8.7 10C8.7 8.2 10.2 6.7 12 6.7C13.7 6.7 15.2 8.2 15.2 10C15.2 11.7 13.7 13.2 12 13.2C10.2 13.2 8.7 11.7 8.7 10Z" fill="#323232"></path> 
<path d="M3 12C3 4.5 4.5 3 12 3C19.4 3 21 4.5 21 12C21 19.4 19.4 21 12 21C4.5 21 3 19.4 3 12Z" stroke="#323232" stroke-width="2"></path> 
<path d="M15 10C15 11.6 13.6 13 12 13C10.3 13 9 11.6 9 10C9 8.3 10.3 7 12 7C13.6 7 15 8.3 15 10Z" stroke="#323232" stroke-width="2"></path> 
<path d="M6 19C6.6 16.6 8.2 16 12 16C15.7 16 17.3 16.6 18 18.9" stroke="#323232" stroke-width="2" stroke-linecap="round"></path>
</svg>